<?xml version="1.0" encoding="UTF-8"?>
<!DOCTYPE svg PUBLIC "-//W3C//DTD SVG 1.1//EN" "http://www.w3.org/Graphics/SVG/1.1/DTD/svg11.dtd">
<svg xmlns="http://www.w3.org/2000/svg" version="1.1" viewBox="185 160 875 610" width="875" height="610" style="shape-rendering:geometricPrecision; text-rendering:geometricPrecision; image-rendering:optimizeQuality; fill-rule:evenodd; clip-rule:evenodd" xmlns:xlink="http://www.w3.org/1999/xlink">
<g><path fill="#ffffff" stroke="#ffffff" stroke-width="0.5" d="M 671.85,839.05 c 5.37,-11.84 10.79,-23.66 16.26,-35.46 c 1.04,-1 1.81,-0.78 2.32,0.64 c 5.25,11.82 10.63,23.57 16.15,35.26 c -0.51,0.65 -1.19,0.91 -2.05,0.81 c -10.37,0.08 -20.75,0.08 -31.12,-0.01 c -0.86,0 -1.39,-0.41 -1.56,-1.24 Z M 629.03,932 c 0.4,-14.41 20.37,-9.77 14.61,5.05 c -4.51,8.34 -14.98,4.09 -14.61,-5.05 Z M 799.2,929 c 0.19,-1.2 -0.45,-4.93 0.62,-5.61 c 12.94,-2.76 13.15,11.66 0.23,8.9 c -1.06,-0.5 -0.78,-2.33 -0.85,-3.29 Z M 860.07,932 c 0.33,-7.44 7.76,-12.55 13.56,-6.12 c 5.3,6.99 -0.25,19.02 -8.94,14.82 c -3.21,-2 -4.75,-4.9 -4.62,-8.7 Z M 647.32,939.28 c 0.48,-0.06 0.9,0.07 1.25,0.39 c 0.54,12.6 -17.02,11.33 -23.4,3.62 c -0.31,-1.12 1.77,-1.61 2.37,-2.29 c 5.78,6.91 15.22,5.97 19.78,-1.72 Z"/></g>
<g><path fill="#ffffff" stroke="#ffffff" stroke-width="0.5" d="M 387.09,932 c 0.09,-11.52 13.26,-17.58 21.26,-8.98 c 0.73,1.78 0.1,2.83 -1.88,3.15 c -1.63,-1.04 -3.35,-1.96 -5.17,-2.76 c -15.76,-2.37 -9.89,25.88 2.97,16.18 c 1.2,-0.74 2.42,-2.34 1.39,-3.72 c -1.36,-0.23 -2.7,-0.52 -4.05,-0.87 c -0.76,-0.96 -0.74,-1.9 0.08,-2.8 c 2.55,-0.29 5.11,-0.31 7.67,-0.06 c 0.49,0.31 0.74,0.75 0.75,1.33 c 0.11,3.67 0.07,7.32 -0.14,10.97 c -0.67,0.74 -1.5,0.98 -2.49,0.73 c -0.67,-0.57 -1.32,-1.12 -1.96,-1.65 c -8.73,6.04 -18.61,-1.83 -18.43,-11.52 Z M 423.69,922.05 c -0.18,-1.14 0.15,-2.07 0.99,-2.8 c 4.93,-0.09 9.87,-0.14 14.81,-0.15 c 0.55,-0.03 1,0.16 1.35,0.58 c 0.48,1.2 0.34,2.29 -0.43,3.28 c -3.62,0.24 -7.24,0.31 -10.88,0.23 c -2.22,-0.21 -0.84,4.04 -1.31,5.25 c -0.61,4.02 10.85,-0.52 10.99,3.07 c 0.92,5.19 -11.36,-0.53 -11.1,4 c 0.34,2.03 -1.18,6.33 2.36,5.86 c 2.11,-0.06 8.88,-0.6 10.39,0.33 c 0.69,1.25 0.58,2.41 -0.32,3.47 c -5.03,0.27 -10.07,0.32 -15.13,0.18 c -0.66,0 -1.15,-0.28 -1.48,-0.84 c -0.13,-7.48 -0.21,-14.97 -0.24,-22.46 Z M 695.82,930 c 0.59,-1.88 -1.35,-11.22 1.71,-10.88 c 1.35,-0.36 2.23,0.09 2.66,1.34 c -0.59,3.57 1.6,24.75 -1.64,24.87 c -5.01,1.03 -1.76,-12.39 -2.73,-15.33 Z M 892.37,943 c 0.1,-7.69 0.2,-15.38 0.32,-23.07 c 0.46,-0.55 1.07,-0.8 1.81,-0.74 c 4.91,-0.11 9.81,-0.06 14.71,0.15 c 1,0.97 1.04,3.57 -0.7,3.77 c -3.33,0.09 -6.66,0.11 -9.99,0.06 c -2.32,-0.24 -1.14,4.07 -1.49,5.34 c -0.53,4.73 12.65,-1.52 10.6,4.71 c -1.27,2.3 -10.69,-1.05 -10.66,2.27 c 0.06,2.97 0.04,5.94 -0.07,8.91 c -0.8,1.57 -5.19,1.52 -4.53,-1.4 Z"/></g>
<g><path fill="#ffffff" stroke="#ffffff" stroke-width="0.5" d="M 647.32,939.28 c -4.56,7.69 -14,8.63 -19.78,1.72 c -3.76,-5.43 -3.97,-10.96 -0.62,-16.61 c 9.97,-13.63 28.17,0.86 20.4,14.89 Z M 992.14,931 c 0.04,-3.47 0.07,-6.95 0.1,-10.42 c -0.01,-0.51 0.18,-0.91 0.57,-1.22 c 9.6,-0.86 19.8,-0.89 21.23,11.13 c 1.54,13.9 -9.59,16 -20.59,14.82 c -0.92,-0.26 -1.36,-0.87 -1.31,-1.83 c 0.1,-4.16 0.1,-8.32 0,-12.48 Z M 629.03,932 c -0.37,9.14 10.1,13.39 14.61,5.05 c 5.76,-14.82 -14.21,-19.46 -14.61,-5.05 Z M 996.74,926 c 0.33,2.69 -0.56,13.54 0.51,15.2 c 1.73,0.33 3.48,0.37 5.26,0.14 c 10.8,-1.52 9.28,-19.4 -2.01,-18.28 c -2.49,-0.15 -4.17,-0.25 -3.76,2.94 Z"/></g>
<g><path fill="#ffffff" stroke="#ffffff" stroke-width="0.5" d="M 489.39,932.11 c -0.1,-15.55 19.82,-15.68 21.59,-7.62 c -0.11,1.51 -2.61,2.98 -3.67,1.7 c -5.47,-7.97 -15.45,-0.19 -12.97,9.13 c 1.67,4.94 5.01,6.79 10.04,5.56 c 1.43,-0.93 2.8,-1.89 4.14,-2.88 c 1.36,-0.01 3.08,0.74 2.59,2.41 c -6.62,10.52 -21.89,4.25 -21.72,-8.3 Z M 855.71,932 c 0.44,-18.24 26.35,-16.72 24.4,2.51 c -3.14,16.29 -24.5,14.02 -24.4,-2.51 Z M 860.07,932 c -0.13,3.8 1.41,6.7 4.62,8.7 c 8.69,4.2 14.24,-7.83 8.94,-14.82 c -5.8,-6.43 -13.23,-1.32 -13.56,6.12 Z"/></g>
<g><path fill="#ffffff" stroke="#ffffff" stroke-width="0.5" d="M 308.2,939 c 0.06,-5.82 0.12,-11.64 0.16,-17.46 c -0.08,-0.77 0.11,-1.47 0.54,-2.08 c 5.43,-0.43 10.87,-0.48 16.32,-0.14 c 0.89,1.18 0.94,2.39 0.17,3.65 c -3.6,0.32 -7.23,0.39 -10.87,0.2 c -0.54,-0.05 -0.98,0.13 -1.34,0.53 c -0.29,1.32 -0.79,5.33 0.46,6.17 c 2.94,0.17 5.89,0.24 8.85,0.22 c 2.02,-0.06 2.2,2.68 0.76,3.57 c -3.22,0.03 -6.44,0.16 -9.66,0.39 c -0.46,0.36 -0.68,0.83 -0.64,1.43 c 0.32,1.53 -0.8,5.09 0.92,5.86 c 2.48,0 12.61,-1.3 12.28,2.15 c 0.19,3.07 -14.03,1.91 -16.7,1.81 c -2.14,-0.27 -0.9,-4.87 -1.25,-6.3 Z M 339.1,922 c -0.29,-2.55 0.82,-3.5 3.35,-2.87 c 0.51,0.02 0.91,0.25 1.19,0.67 c 0.16,6.23 0.22,12.46 0.17,18.7 c -0.03,0.95 0.1,1.87 0.39,2.77 c 3.99,0.04 8,0.1 12.05,0.18 c 6.45,5.84 -12.21,3.47 -13.75,3.98 c -1.41,0.01 -3.57,0.1 -3.34,-1.96 c 0,-7.15 -0.02,-14.31 -0.06,-21.47 Z"/></g>
<g><path fill="#ffffff" stroke="#ffffff" stroke-width="0.5" d="M 829.78,926 c -0.68,-4.2 3.13,-2.69 5.72,-2.85 c 4.94,-0.22 6.52,6.87 2.03,9 c -2.36,0.34 -4.71,0.34 -7.05,0.02 c -1.26,-0.92 -0.48,-4.71 -0.7,-6.17 Z M 996.74,926 c -0.41,-3.19 1.27,-3.09 3.76,-2.94 c 11.29,-1.12 12.81,16.76 2.01,18.28 c -1.78,0.23 -3.53,0.19 -5.26,-0.14 c -1.07,-1.66 -0.18,-12.51 -0.51,-15.2 Z M 721.1,933.98 c 3.38,-11.43 3.47,-10.68 6.49,0.46 c -0.56,0.8 -6.33,1.41 -6.49,-0.46 Z"/></g>
<g><path fill="#ffffff" stroke="#ffffff" stroke-width="0.5" d="M 747.81,943 c -0.01,-7.49 0.06,-14.99 0.21,-22.49 c 0.08,-1.78 2.86,-1.57 3.88,-0.83 c 1.35,2.47 -0.82,21.7 1.57,21.83 c 3.88,-0.15 7.75,-0.15 11.62,0.02 c 1.56,1.48 1.05,4.14 -1.56,3.84 c -4.71,-0.06 -9.41,-0.05 -14.12,0.03 c -1.26,-0.29 -1.8,-1.09 -1.6,-2.4 Z M 966.33,934.24 c 2.24,-1.29 1.59,-2.38 1.95,-4.51 c 1.54,1.95 3.1,3.9 4.65,5.85 c 0.41,0.36 0.8,0.34 1.15,-0.05 c 0.13,-5.22 0.26,-10.43 0.4,-15.65 c 0.85,-1.15 3.19,-1.1 4.07,-0.01 c 0.21,8.12 0.24,16.24 0.08,24.38 c -0.53,1.56 -2.92,1.26 -4.03,0.6 c -2.99,-3.35 -5.74,-6.89 -8.27,-10.61 Z"/></g>
<g><path fill="#ffffff" stroke="#ffffff" stroke-width="0.5" d="M 240.54,942 c 0.11,-6.84 0.15,-13.69 0.14,-20.53 c -0.34,-2.71 2.37,-2.81 4.01,-1.64 c 4.03,4.98 7.94,10.06 11.72,15.23 c 0.91,1.02 1.47,0.85 1.68,-0.5 c -0.05,-4.94 0.03,-9.86 0.24,-14.78 c 1.1,-1.14 4.78,-1.36 4.41,1.74 c 0.07,7.31 0.08,14.62 0.02,21.93 c 0.22,2.55 -3.4,2.28 -4.67,0.89 c -4.11,-5.35 -8.28,-10.63 -12.51,-15.85 c -0.37,0.2 -0.54,0.53 -0.51,0.97 c 0.09,5.02 0.08,10.03 -0.02,15.04 c -0.31,0.59 -0.8,0.9 -1.48,0.93 c -2.48,0.2 -3.49,-0.94 -3.03,-3.43 Z M 369.53,942 c 0.02,-7.19 0.06,-14.38 0.13,-21.56 c 0.52,-1.24 1.45,-1.66 2.8,-1.26 c 2.61,-4.05 1.05,23.95 1.53,24.33 c 0.05,0.59 -0.14,1.09 -0.57,1.5 c -2.89,1.02 -4.18,0.02 -3.89,-3.01 Z M 593.66,942.09 c 0.23,-0.95 0.73,-2.72 1.93,-2.83 c 1.88,0.73 3.8,1.4 5.75,2 c 2.04,0.56 4.01,0.4 5.92,-0.49 c 7.06,-7.05 -13.55,-4.12 -13.07,-14.25 c 1.52,-11.75 18.87,-7.14 17.57,-3.44 c -1.67,4.94 -7.24,-3.1 -11.95,1.2 c -5.56,7.99 17.66,3.08 12.91,16.8 c -3.41,6.42 -15.13,5.31 -19.06,1.01 Z M 712.68,944.1 c 3.01,-7.89 6.08,-15.76 9.19,-23.62 c 0.56,-1.73 2.84,-1.56 4.16,-0.96 c 3.43,8.22 6.65,16.53 9.67,24.91 c -0.24,0.45 -0.63,0.72 -1.15,0.8 c -5.58,1.3 -3.6,-5.77 -6.37,-6.58 c -2.09,-0.1 -7.02,-0.6 -8.54,0.4 c -1.9,2.73 -1.47,7.66 -6.22,6.11 c -0.45,-0.22 -0.69,-0.58 -0.74,-1.06 Z M 794.73,944.04 c 0.04,-8.13 0.18,-16.25 0.41,-24.37 c 0.83,-1.11 8.69,-0.33 10.37,-0.54 c 9.37,0.87 11.5,12.92 2.92,16.9 c -2.81,0.27 -5.62,0.47 -8.43,0.6 c -2.27,1.44 1.85,9.56 -3.57,8.74 c -0.92,-0.01 -1.49,-0.45 -1.7,-1.33 Z M 921.03,932 c 0.92,-2.61 -1.93,-13.55 2.43,-12.83 c 5.65,0.09 -2.84,18.69 7.01,22.01 c 15.13,2.3 3.76,-22.89 10.99,-21.98 c 3.22,-0.19 3.53,20.38 -1.9,23.82 c -9.29,6.71 -19.6,0.22 -18.53,-11.02 Z M 968.28,929.73 c -0.36,2.13 0.29,3.22 -1.95,4.51 c -1.56,-2.05 -3.17,-4.03 -4.81,-5.97 c -0.39,0.29 -0.56,0.68 -0.52,1.18 c 0.02,5.01 0.03,10.02 0.01,15.02 c -1.1,1.59 -4.4,1.57 -4.38,-0.88 c 0.1,-7.37 0.09,-14.75 -0.01,-22.12 c -0.36,-2.76 2.41,-2.99 4.06,-1.64 c 2.51,3.32 5.04,6.61 7.6,9.9 Z M 799.2,929 c 0.07,0.96 -0.21,2.79 0.85,3.29 c 12.92,2.76 12.71,-11.66 -0.23,-8.9 c -1.07,0.68 -0.43,4.41 -0.62,5.61 Z M 721.1,933.98 c 0.16,1.87 5.93,1.26 6.49,0.46 c -3.02,-11.14 -3.11,-11.89 -6.49,-0.46 Z"/></g>
<g><path fill="#ffffff" stroke="#ffffff" stroke-width="0.5" d="M 541.63,944.11 c 2.96,-7.96 5.98,-15.9 9.07,-23.81 c 0.69,-1.64 2.99,-1.25 4.28,-0.69 c 3.27,8.04 6.42,16.14 9.44,24.31 c 0.91,1.57 -3.85,2.6 -4.78,-0.18 c -0.79,-1.51 -0.98,-5.43 -3.3,-5.28 c -2.62,-0.04 -5.22,0.14 -7.79,0.54 c -1.03,2 -2.08,3.98 -3.16,5.95 c -1.08,0.39 -3.44,0.73 -3.76,-0.84 Z M 549.79,934.06 c 0.21,1.63 6.13,1.3 6.72,0.28 c -3.3,-10.42 -3.5,-10.73 -6.72,-0.28 Z"/></g>
<g><path fill="#ffffff" stroke="#ffffff" stroke-width="0.5" d="M 660.7,932 c 0.04,-11.11 12.02,-17.32 20.45,-9.64 c 1.92,2.18 1.42,3.59 -1.48,4.22 c -0.81,-0.71 -1.61,-1.44 -2.4,-2.17 c -9.82,-5.55 -14.97,6.76 -9.72,14.53 c 4.23,4.5 8.77,1.88 12.84,-0.88 c 1.04,0.17 2.85,0.98 2.43,2.33 c -7.66,10.81 -22.06,3.98 -22.12,-8.39 Z"/></g>
<g><path fill="#ffffff" stroke="#ffffff" stroke-width="0.5" d="M 274.99,921 c -0.05,-1.1 0.47,-1.71 1.54,-1.82 c 5.66,-0.07 11.32,-0.1 16.98,-0.08 c 2.68,-0.42 3.23,2.08 1.86,3.83 c -2.2,0.28 -4.42,0.4 -6.66,0.37 c -0.5,0.23 -0.79,0.62 -0.86,1.18 c -0.04,2.63 0.34,19.54 -0.51,20.45 c -1.12,0.61 -3.55,0.9 -4.12,-0.59 c 0.09,-6.9 -0.04,-13.78 -0.38,-20.65 c -1.96,-1.62 -8.3,1.41 -7.85,-2.69 Z"/></g>
<g><path fill="#ffffff" stroke="#ffffff" stroke-width="0.5" d="M 469.21,933.8 c -0.31,4.9 -1.08,1.22 -2.95,3.44 c -1.89,-2.44 -3.79,-4.87 -5.71,-7.28 c -4.32,-4.97 2.72,19.27 -5.85,14.94 c -0.84,-1.2 -0.2,-20.37 -0.34,-23.37 c -0.02,-2.04 0.98,-2.78 2.99,-2.21 c 1.78,0.68 9.89,12.31 11.86,14.48 Z"/></g>
<g><path fill="#ffffff" stroke="#ffffff" stroke-width="0.5" d="M 466.26,937.24 c 1.87,-2.22 2.64,1.46 2.95,-3.44 c 0.37,0.53 1.91,3.13 2.59,1.59 c 0.06,-5.23 0.2,-10.46 0.41,-15.68 c 1.61,-1.26 4.48,-0.93 4.11,1.76 c 0.04,7.69 -0.03,15.36 -0.24,23.02 c -0.86,1.36 -3.11,0.92 -4.18,0.06 c -1.97,-2.38 -3.85,-4.81 -5.64,-7.31 Z M 825.08,942 c 0.02,-7.41 0.11,-14.81 0.28,-22.21 c 0.29,-0.4 0.68,-0.59 1.18,-0.59 c 5.93,0.44 14.09,-2.18 17.21,4.7 c 1.77,4.51 0.76,8.26 -3.06,11.25 c -1.94,1.78 5.43,8.41 3.8,9.92 c -7.9,2.45 -4.98,-10.06 -13.08,-8.46 c -3.06,0.18 -0.28,6.73 -2.02,8.38 c -2.88,1.13 -4.86,0.34 -4.31,-2.99 Z M 1024.02,943.99 c 3.16,-8.03 6.3,-16.06 9.42,-24.1 c 0.29,-0.39 0.67,-0.61 1.16,-0.65 c 2.33,-0.58 3.69,0.32 4.07,2.71 c 2.79,7.48 5.52,14.97 8.18,22.48 c -0.22,0.58 -0.65,0.9 -1.28,0.95 c -5.79,0.8 -2.59,-7.1 -7.11,-6.95 c -2.51,0.01 -5.01,0.12 -7.5,0.32 c -0.89,2.03 -1.79,4.05 -2.69,6.06 c -1.19,0.55 -4.17,1.21 -4.25,-0.82 Z M 829.78,926 c 0.22,1.46 -0.56,5.25 0.7,6.17 c 2.34,0.32 4.69,0.32 7.05,-0.02 c 4.49,-2.13 2.91,-9.22 -2.03,-9 c -2.59,0.16 -6.4,-1.35 -5.72,2.85 Z M 1032.17,933.98 c 0.17,1.91 4.11,0.85 5.38,1.16 c 3.45,-0.3 -1.6,-8.03 -2.11,-9.79 c -1.05,2.88 -2.13,5.76 -3.27,8.63 Z"/></g>
<g><path fill="#ffffff" stroke="#ffffff" stroke-width="0.5" d="M 221.31,932 c 0.65,-2.35 -2.22,-17.44 4.42,-12.26 c 0.13,3.14 0.94,24.06 -0.31,25.28 c -6.96,2.89 -3.03,-9.51 -4.11,-13.02 Z"/></g>
<g><path fill="#ffffff" stroke="#ffffff" stroke-width="0.5" d="M 524.56,943.01 c 0.1,-7.53 0.13,-15.05 0.09,-22.57 c 0.5,-2.1 4.23,-1.86 4.34,0.07 c -0.11,7.67 -0.07,15.35 0.13,23.02 c -0.19,3.02 -5.15,2.58 -4.56,-0.52 Z"/></g>
<g><path fill="#ffffff" d="M 1032.17,933.98 c 1.14,-2.87 2.22,-5.75 3.27,-8.63 c 0.51,1.76 5.56,9.49 2.11,9.79 c -1.27,-0.31 -5.21,0.75 -5.38,-1.16 Z M 549.79,934.06 c 3.22,-10.45 3.42,-10.14 6.72,0.28 c -0.59,1.02 -6.51,1.35 -6.72,-0.28 Z"/></g>
<g><path fill="#ffffff" d="M 818.29,820.96 c 0.59,0.3 0.83,0.8 0.7,1.5 c -0.05,4.7 -0.05,9.39 -0.01,14.08 c 0.13,0.65 -0.06,1.13 -0.58,1.44 c -0.27,-0.8 -0.41,-1.62 -0.41,-2.47 c -0.09,-4.86 0.01,-9.71 0.3,-14.55 Z"/></g>
<g><path fill="#ffffff" stroke="#ffffff" stroke-width="0.5" d="M 690.92,231.38 c -0.18,1.03 -1.67,0.69 -2.38,0.89 c 1.89,0.83 3.86,1.28 5.91,1.36 c 0.7,0.47 1.43,0.84 2.22,1.11 c 1.29,0.07 2.58,0.01 3.87,-0.17 c 3.38,0.62 6.76,1.27 10.13,1.96 c 0.8,0.32 1.59,0.65 2.37,1.01 c 0.81,-0.08 1.62,-0.07 2.43,0.02 c 1.91,0.67 3.86,1.06 5.87,1.16 c 0.4,-0.24 0.66,-0.59 0.78,-1.04 c 117.16,28.39 212.7,104.6 274.6,206.98 c 0.24,0.5 0.13,0.92 -0.31,1.24 c -14.63,0.18 -29.27,0.25 -43.91,0.22 c -3.27,0.04 -6.53,-0.07 -9.78,-0.34 c -6.83,-10.41 -13.92,-20.65 -21.26,-30.73 c -69.63,-92.4 -180.44,-158.6 -297.96,-158.97 c -124.48,1.78 -240.44,70.13 -309.63,172.36 c -3.95,5.48 -7.57,11.16 -10.85,17.05 c -0.77,0.46 -1.6,0.67 -2.51,0.61 c -17.01,0.01 -34.02,-0.02 -51.04,-0.08 c -0.8,0.01 -1.18,-0.35 -1.14,-1.1 c 89.04,-153.66 265.69,-243.17 442.59,-213.54 Z M 638.15,332.56 c -0.24,0.86 -0.78,1.39 -1.64,1.59 c -5.99,-0.03 -11.98,-0.07 -17.98,-0.12 c -2.1,0.02 -4.17,0.17 -6.21,0.45 c 0.88,1.02 4.09,0.39 5.51,0.91 c 4.84,-0.36 9.68,-0.44 14.53,-0.23 c 1.25,0.64 2.57,1.01 3.97,1.12 c 0.06,0.52 0.19,1.02 0.38,1.51 c 5.48,2.05 7.92,2.21 13.79,2.24 c 1.75,0.02 1.59,-1.25 2.84,-1.77 c 1.75,0.99 3.53,1.07 5.35,0.26 c -2.07,-0.96 -4.22,-1.58 -6.43,-1.85 c 0.72,-0.36 1.3,-0.88 1.73,-1.55 c 19.9,4.49 38.13,12.69 54.69,24.6 c 0.67,0.75 4.35,3.05 3.32,4.25 c -6.78,8.02 -16.82,17.3 -23.99,25.55 c -1,0.72 -2.62,3.05 -4.01,1.94 c -5.02,-3.1 -9.73,-6.61 -15.12,-9.12 c 0.63,-0.08 1.16,-0.31 1.59,-0.7 c -3.01,-0.9 3.2,-3.21 -2.42,-5.15 c -0.35,-0.21 -0.69,-0.22 -1.04,-0.01 c -0.53,0.88 -1.28,1.33 -2.27,1.36 c -7.19,-2.18 -14.78,-5.9 -22.23,-6.46 c -2.89,-1.05 -5.61,-2.42 -8.17,-4.11 c -1.36,-0.29 -1.87,1.19 -2.99,1.64 c -1.27,0.19 -2.56,0.25 -3.85,0.2 c -2.87,1.35 -5.58,1.13 -8.16,-0.67 c 0.97,-0.44 1.74,-1.08 2.31,-1.92 c -1.06,-1.17 -4.8,-0.31 -6,0.67 c -0.15,0.55 -0.26,1.1 -0.34,1.67 c -2.08,0.52 -3.05,0.09 -4.85,1.46 c -3.13,-0.11 -5.64,1.8 -8.77,0.89 c -3.75,0.77 -7.28,2.54 -11.09,2.95 c -2.7,2.98 -4.01,2.73 -7.57,3.24 c -1.3,0.72 -2.49,1.59 -3.56,2.6 c -1.83,1 -3.7,1.84 -5.61,2.53 c -0.98,0.18 -1.92,0.11 -2.82,-0.22 c -0.41,-4.62 3.84,-2.53 5.72,-3.96 c -0.33,-1.36 -0.38,-2.7 -0.17,-4.02 c -2.87,1.88 -3.64,-0.88 -5.87,-0.12 c -1.13,0.77 -2.23,1.57 -3.32,2.39 c 1.31,2.31 -0.54,2.76 -1.87,4.39 c -0.58,1.89 -2.96,3.62 -3.17,5.51 c 2.2,1.54 1.04,0.89 -0.04,3.02 c 0.52,0.39 1.12,0.61 1.79,0.66 c -3.31,2.19 -3.46,2.15 -6.24,-0.54 c -7.98,-8.35 -16,-16.66 -24.07,-24.93 c -0.96,-0.82 -0.98,-1.66 -0.07,-2.51 c 29.51,-23.11 67.19,-33.47 104.42,-29.64 Z M 521.32,461.02 c -0.74,-0.39 -1.33,-0.93 -1.79,-1.62 c -0.25,0.58 -0.62,1.05 -1.13,1.4 c -1.96,0.25 -3.93,0.38 -5.9,0.41 c -10.01,0.13 -20.02,0.16 -30.02,0.08 c -0.95,-0.02 -1.86,-0.2 -2.75,-0.53 c -0.07,-7.24 1.82,-14.72 3.36,-21.78 c 0.52,0.44 0.94,0.97 1.26,1.58 c 1.1,-2.25 2,-4.59 2.69,-7.02 c 0.38,-1.44 0.43,-2.88 0.17,-4.34 c 0.79,-1.12 1.27,-2.37 1.44,-3.74 c 1.29,-1.09 1.92,-2.48 1.91,-4.16 c 0.65,-0.82 1.2,-1.71 1.64,-2.67 c 0.1,-1.06 0.19,-2.13 0.28,-3.2 c 0.56,-1.37 1.27,-2.63 2.14,-3.79 c -0.2,-0.42 -0.52,-0.69 -0.97,-0.81 c 4.5,-9.07 10,-17.49 16.5,-25.25 c 1.66,-2.02 3.47,-3.88 5.43,-5.59 c 0.83,-0.05 1.52,0.24 2.08,0.87 c 8.71,8.9 17.38,17.83 26,26.8 c 0.18,0.5 0.15,0.98 -0.1,1.44 c -12.1,14.61 -20.25,33.03 -22.24,51.92 Z M 763.46,444.8 c -2.96,1.02 -0.47,5.53 -2.01,6.86 c -0.47,-0.29 -0.96,-0.35 -1.46,-0.18 c -1.38,1.68 -2.61,3.47 -3.67,5.37 c -1.71,0.77 -3.36,1.65 -4.95,2.63 c 0.47,0.29 0.9,0.62 1.31,0.98 c -2.37,0.37 -4.77,0.53 -7.2,0.48 c -6.35,-0.25 -12.7,-0.36 -19.06,-0.33 c -0.73,0.12 -1.17,0.54 -1.31,1.26 c -0.51,-0.71 -0.84,-1.49 -1,-2.35 c -1.44,-13.18 -5.56,-25.47 -12.36,-36.87 c -3.11,-4.82 -6.32,-9.54 -9.65,-14.17 c 0.06,-0.27 0.13,-0.54 0.19,-0.81 c 8.19,-9.01 17.71,-18.98 26.66,-27.39 c 0.45,-0.3 0.89,-0.28 1.33,0.05 c 16.32,15.64 28.91,42.4 33.18,64.47 Z M 544.84,467.98 c 0.89,0.65 1.43,1.53 1.64,2.65 c -0.22,-0.69 -0.37,-1.4 -0.43,-2.12 c 0.59,-2.32 1.23,-4.63 1.9,-6.92 c 0.01,-4.79 2.13,-8.58 2.53,-13.31 c 0.84,-0.82 2.33,-4.1 0.26,-4.37 c 35.17,-78.32 151.47,-53.83 150.27,33.59 c -4.94,80.18 -112.3,102.02 -148.51,30.5 c -6.19,-12.63 -8.75,-25.97 -7.66,-40.02 Z M 616.67,498 c 0.12,8.5 0.14,17 0.07,25.51 c 0.18,7.11 10,9.11 11.68,1.01 c 0.16,-33.28 0.21,-66.55 0.16,-99.83 c -0.62,-7.91 -10.62,-7.66 -11.75,-1.23 c -0.04,24.84 -0.09,49.69 -0.16,74.54 Z M 614.67,426.98 c 0.02,6.17 0.21,12.33 0.58,18.48 c -0.16,15.01 -0.3,30.03 -0.44,45.05 c 0.29,2.99 0.47,5.99 0.54,9 c -0.31,4.99 -0.53,9.98 -0.64,14.98 c 0.27,2.06 0.04,9.7 1.03,10.98 c 0.08,-4.33 0.21,-8.66 0.39,-12.99 c -0.43,-6.67 -0.46,-13.34 -0.1,-20 c -0.06,-21.65 -0.04,-43.3 0.06,-64.95 c 0.05,-1.76 -0.13,-3.48 -0.54,-5.16 c -0.65,1.46 -0.95,3 -0.88,4.61 Z M 592.27,441.02 c -0.27,1.14 -0.4,2.3 -0.38,3.47 c 0.14,20.01 0.19,40.01 0.16,60.02 c 0.93,4.45 3.6,6.1 8,4.95 c 2.32,-1.28 3.48,-3.27 3.48,-5.95 c -0.05,-12.33 0.02,-24.66 0.2,-36.98 c -0.68,-0.68 -0.69,-1.37 -0.01,-2.05 c -0.09,-7.33 -0.21,-14.66 -0.35,-21.99 c -0.18,-2.24 -1.23,-3.91 -3.17,-5.03 c 0.48,-0.44 0.56,-0.91 0.23,-1.41 c -1.87,-0.67 -3.58,-1.63 -5.13,-2.89 c -1.62,-0.13 -3,0.38 -4.16,1.53 c -1.34,1.98 -2.67,3.96 -4,5.96 c -0.69,1.49 -1.97,3.82 -0.48,5.18 c 1.21,0.47 3.68,-0.49 3.35,1.63 c 0.1,4.17 0.59,12.09 -1.11,15.73 c -3.16,0.53 -2.29,5.06 -1.98,7.28 c 0.84,1.79 1.8,3.48 2.89,5.07 c 0.14,3.04 0.93,11.89 -0.61,14.3 c -4.05,1.84 -1.54,5.48 -1.16,8.58 c 2.43,2.29 1.64,3.12 1.85,6.15 c 0.36,1.52 0.68,1.49 0.97,-0.08 c 0.24,-20.29 0.02,-40.71 0.02,-61 c -0.19,-1.23 0.28,-2.05 1.39,-2.47 Z M 642.44,439.97 c -0.57,-0.71 -1.26,-0.81 -2.04,-0.3 c -0.54,-0.26 -1.09,-0.41 -1.67,-0.44 c -1.6,0.63 -3.06,1.51 -4.37,2.63 c -0.89,-0.22 -1.78,-0.44 -2.67,-0.65 c -1.39,0.8 -0.68,5.69 -0.48,7.13 c 0.17,0.14 0.34,0.28 0.51,0.43 c 3.49,-1.08 2.6,-0.42 4.93,2.05 c 0.32,1.41 0.94,2.66 1.86,3.75 c 0.28,-0.77 0.62,-1.52 1.03,-2.25 c 0.3,5.71 0.41,11.44 0.35,17.18 c 0.07,3.77 -0.05,7.51 -0.35,11.24 c -0.35,-0.8 -0.71,-1.58 -1.07,-2.35 c -0.97,3.66 -1.71,7.39 -2.25,11.18 c -0.02,2.1 -0.92,5.83 0,7.68 c 0.76,1.45 1.52,2.88 2.28,4.3 c 0.38,-0.41 0.76,-0.84 1.12,-1.29 c 0.12,1.86 0.39,3.69 0.81,5.46 c 0.46,-0.48 0.77,-1.05 0.93,-1.7 c 1.35,8.95 12.84,7.46 12.12,-1.51 c -0.07,-20.01 -0.12,-40.02 -0.17,-60.03 c -1.02,-5.68 -7.83,-7.01 -10.87,-2.51 Z M 566.64,471 c 0.04,4.5 0.05,9 0.03,13.5 c -0.19,8.53 10.49,9.03 12.03,1.84 c 0.06,-7.61 0.09,-15.23 0.09,-22.84 c 0.22,-3.6 -1.37,-5.97 -4.76,-7.12 c -9.17,-1.05 -7.38,8.62 -7.39,14.62 Z M 666.22,467 c -0.05,6.67 0.06,13.34 0.32,19.99 c 2.26,5.85 10.41,5.5 11.69,-0.48 c 0.11,-8 0.13,-16.01 0.05,-24.01 c -0.21,-9.21 -13.7,-9.17 -12.06,4.5 Z M 764.47,497.2 c -1.64,10.72 -4.63,21.05 -8.97,30.99 c -0.68,-2.17 -0.8,-1.91 -2.1,-0.25 c -1.82,4.44 -5,9.17 -6.04,13.8 c -1.15,0.74 -2.11,1.69 -2.89,2.84 c -0.51,-2.15 -2.02,-3.69 -3.96,-1.63 c -0.36,1.07 -1.56,6.65 0.94,5.45 c 0.43,0.94 1.13,1.54 2.11,1.8 c -3.83,5.69 -8.01,11.11 -12.53,16.27 c -1.05,0.89 -2.03,0.81 -2.97,-0.22 c -8.28,-8.97 -16.81,-17.69 -25.58,-26.18 c -0.55,-0.76 -0.62,-1.56 -0.21,-2.4 c 5.76,-7 10.59,-14.6 14.47,-22.78 c 1.47,0.12 2.18,-0.58 2.13,-2.1 c 1.23,-1.28 2.15,-2.76 2.76,-4.43 c 0.46,-2.7 1.13,-5.31 2,-7.85 c 0.28,-0.53 0.58,-1.05 0.88,-1.57 c 0.08,-2.86 0.32,-5.7 0.73,-8.51 c 0.43,-3.91 2.47,-2.78 5.29,-3.45 c 9.32,0.03 18.64,0.03 27.96,0 c 4.67,0.72 3.98,0.12 5.45,4.51 c -0.25,1.36 -0.54,2.72 -0.88,4.07 c 0.13,0.84 0.6,1.39 1.41,1.64 Z M 522.89,495.98 c 2.29,11.09 7.44,23.57 13.86,32.96 c 2.23,3.27 4.54,6.46 6.92,9.59 c 0.02,0.46 -0.13,0.86 -0.46,1.18 c -8.71,8.62 -17.25,17.4 -25.63,26.34 c -2.15,2.75 -4.16,-1.2 -5.57,-2.57 c -16.51,-19.15 -28.27,-43.08 -31.52,-68.27 c 3.38,-1.24 -1.61,-6.87 2.88,-7.8 c 3.04,0.27 6.1,0.37 9.17,0.28 c 1.32,-0.24 2.64,-0.49 3.96,-0.74 c 6.67,0.06 13.34,0.06 20,0.01 c 1.4,-0.02 2.49,0.54 3.26,1.68 c -0.15,3.13 0.47,6.08 1.87,8.87 c 0.32,-0.59 0.74,-1.1 1.26,-1.53 Z M 597.98,713.11 c 0.21,-1.19 1.91,-0.77 2.65,-1.56 c -0.7,0.09 -1.41,0.21 -2.12,0.35 c -9.5,-2.01 -19.39,-1.83 -28.88,-3.95 c -1.69,0.2 -5.61,-1.05 -5.84,1.56 c -129.72,-19.23 -246.25,-101.01 -314.08,-212.36 c 1.98,-1.66 3.75,-1.14 5.78,-2.1 c 1.34,0.3 2.69,0.61 4.03,0.92 c 2.71,-0.02 5.37,-0.36 7.98,-1.02 c 3.71,-0.22 7.38,0.02 11,0.71 c 7.01,-0.02 14.02,-0.01 21.02,0.01 c 1.14,0.03 2.17,0.37 3.1,1.03 c 0.32,-0.48 0.43,-1.01 0.35,-1.6 c 3.42,5.31 6.89,10.6 10.42,15.86 c 14.66,21.41 31.28,41.19 49.83,59.33 c 24.85,24.57 52.23,45.89 82.13,63.95 c 32.86,19.31 68.35,34.65 105.64,42.92 c -0.74,0.63 -1.61,1.06 -2.61,1.29 c 1.4,-0.43 2.61,-0.08 3.62,1.05 c 1.81,-0.1 2.59,-0.28 4.04,1.01 c 1.62,0.15 3.15,0.59 4.59,1.32 c 1.04,-0.1 2.07,-0.3 3.08,-0.6 c 1.61,2.54 2.23,1.56 4.79,0.89 c 2.78,0.5 3.01,2.19 5.97,1.05 c 1.35,0.18 4.12,1.52 4.67,-0.6 c 145.27,20.54 286.74,-63.89 361.51,-185.59 c 1.73,-2.49 2.63,-3.21 5.83,-3.16 c 16.01,0.15 32.03,0.18 48.04,0.08 c 0.79,-0.09 1.46,0.12 2.01,0.64 c -20.59,34.98 -45.52,66.55 -74.79,94.7 c -86.7,85.14 -201.62,131.95 -323.76,123.87 Z M 566.31,558.72 c -0.74,1.12 -1.67,1.31 -2.81,0.57 c -0.23,0.7 -0.21,1.42 0.09,2.15 c -1.21,1.31 -2.02,1.8 -1.41,3.85 c 2.71,2.62 5.9,4.4 9.56,5.34 c 2.2,0.56 8.43,-1.42 9.29,-3.62 c 8.77,4.01 17.93,6.61 27.49,7.78 c 0.92,0.18 1.74,0.57 2.46,1.17 c -1.02,-0.36 -1.9,-0.19 -2.65,0.52 c 0.52,0.33 0.96,0.75 1.32,1.24 c 0.09,3.25 0.1,6.5 0.06,9.76 c 0.89,6.86 0.76,13.3 -0.65,20.05 c -0.04,1.64 0.2,3.22 0.72,4.75 c -0.34,0.67 -0.64,1.35 -0.9,2.04 c -25.39,-1.75 -51.23,-12.28 -71.97,-26.84 c -0.75,-0.68 -4.75,-3.23 -3.82,-4.42 c 0.76,-1.05 1.57,-2.06 2.43,-3.03 c 8.16,-8.17 16.26,-16.4 24.3,-24.67 c 1.37,-0.92 5.33,2.64 6.49,3.36 Z M 633.86,589 c 0,-4.17 0.04,-8.34 0.11,-12.5 c 0.02,-0.56 0.26,-0.98 0.73,-1.27 c 19.22,-2.36 34.33,-8.79 49.92,-20.05 c 0.79,-0.12 1.46,0.12 1.99,0.73 c 8.17,8.82 16.49,17.5 24.95,26.05 c 0.99,0.75 1.15,1.62 0.47,2.6 c -22.68,17.35 -48.24,27.37 -76.68,30.05 c -1.18,-0.12 -1.68,-0.82 -1.49,-2.09 c 0.08,-7.84 0.07,-15.68 0,-23.52 Z M 147.6,849 c 0.04,-18.53 0.06,-37.05 0.05,-55.58 c 0.02,-0.65 0.31,-1.12 0.87,-1.43 c 2.29,-0.18 4.57,-0.14 6.84,0.13 c 0.45,0.34 0.66,0.8 0.62,1.37 c 0.02,20.97 0.07,41.93 0.15,62.89 c 0.62,0.68 1.4,0.96 2.35,0.83 c 12.94,0.05 25.88,0.07 38.83,0.08 c 1.72,0.55 1.27,5.44 1.26,7.08 c -0.48,0.7 -1.16,1.04 -2.03,1.02 c -16.04,0.03 -32.07,-0.04 -48.1,-0.22 c -0.55,-0.38 -0.82,-0.9 -0.81,-1.58 c 0.04,-4.86 0.03,-9.73 -0.03,-14.59 Z M 908.81,864 c 11.46,-23.59 22.61,-47.32 33.46,-71.19 c 1.51,-1.72 6.9,-0.89 9.01,-0.59 c 0.54,0.49 0.95,1.09 1.2,1.79 c 6.14,13.2 12.32,26.38 18.53,39.55 c 4.88,10.24 9.55,20.56 14.02,30.96 c -0.5,1.8 -5.11,0.48 -6.56,0.87 c -0.65,0.02 -1.25,-0.13 -1.81,-0.45 c -2.61,-5.13 -5.08,-10.32 -7.42,-15.6 c -0.57,-1.08 -1.48,-1.54 -2.72,-1.37 c -13.33,0.03 -26.66,0.06 -39.99,0.08 c -0.79,0.16 -1.34,0.61 -1.65,1.36 c -2.32,5.27 -4.84,10.43 -7.57,15.47 c -1.48,0.97 -5.13,0.38 -6.92,0.53 c -0.94,-0.04 -1.46,-0.51 -1.58,-1.41 Z M 1076.77,826.23 c 0.02,-0.89 0.04,-1.78 0.06,-2.67 c 1.05,-1.5 2.71,-1.41 3.64,-3.14 c 0.82,0.39 1.69,0.57 2.59,0.53 c 7.85,9.38 15.5,18.91 22.95,28.6 c 0.37,0.37 0.72,0.35 1.06,-0.04 c 0.07,-18.65 0.11,-37.31 0.11,-55.98 c -0.3,-2.56 4.94,-1.35 6.34,-1.68 c 1.37,-0.19 2.11,0.38 2.22,1.69 c -0.21,23.3 -0.23,46.61 -0.08,69.91 c 0.48,2.73 -3.69,1.76 -5.18,1.89 c -0.96,0.06 -1.85,-0.17 -2.66,-0.67 c -10.36,-12.81 -20.71,-25.62 -31.05,-38.44 Z M 151.84,798.91 c -0.58,3.79 2.07,2.24 2.09,4.57 c 0.09,14 0.09,28.01 -0.02,42.02 c 0.3,2.74 -0.28,8.93 0.65,11.16 c 0.45,-1.34 0.61,-2.73 0.5,-4.18 c -0.42,-13.32 -0.42,-26.65 -0.01,-39.98 c -0.23,-5.35 -0.28,-10.7 -0.13,-16.05 c 0.07,-0.52 -0.06,-0.96 -0.39,-1.32 c -0.43,1.16 -0.73,2.35 -0.9,3.57 c -0.7,-0.49 -1.29,-0.42 -1.79,0.21 Z M 929.88,838.99 c -0.11,1.41 1.66,1.39 2.6,1.37 c 10.01,0 20.03,-0.01 30.05,-0.02 c 0.88,0.1 1.58,-0.18 2.1,-0.84 c -5.4,-11.76 -10.82,-23.5 -16.27,-35.24 c -0.48,-1.35 -1.22,-1.56 -2.23,-0.64 c -5.49,11.76 -10.9,23.55 -16.25,35.37 Z"/></g>
<g><path fill="#ffffff" stroke="#ffffff" stroke-width="0.5" d="M 642.44,439.97 c -0.85,1.74 -1.22,3.58 -1.09,5.52 c 0.04,19.51 0.04,39.02 0.01,58.53 c -0.16,0.65 -0.47,1.22 -0.93,1.7 c -0.42,-1.77 -0.69,-3.6 -0.81,-5.46 c -0.36,0.45 -0.74,0.88 -1.12,1.29 c -0.76,-1.42 -1.52,-2.85 -2.28,-4.3 c -0.92,-1.85 -0.02,-5.58 0,-7.68 c 0.54,-3.79 1.28,-7.52 2.25,-11.18 c 0.36,0.77 0.72,1.55 1.07,2.35 c 0.3,-3.73 0.42,-7.47 0.35,-11.24 c 0.06,-5.74 -0.05,-11.47 -0.35,-17.18 c -0.41,0.73 -0.75,1.48 -1.03,2.25 c -0.92,-1.09 -1.54,-2.34 -1.86,-3.75 c -2.33,-2.47 -1.44,-3.13 -4.93,-2.05 c -0.17,-0.15 -0.34,-0.29 -0.51,-0.43 c -0.2,-1.44 -0.91,-6.33 0.48,-7.13 c 0.89,0.21 1.78,0.43 2.67,0.65 c 1.31,-1.12 2.77,-2 4.37,-2.63 c 0.58,0.03 1.13,0.18 1.67,0.44 c 0.78,-0.51 1.47,-0.41 2.04,0.3 Z"/></g>
<g><path fill="#ffffff" stroke="#ffffff" stroke-width="0.5" d="M 616.67,498 c 0.07,-24.85 0.12,-49.7 0.16,-74.54 c 1.13,-6.43 11.13,-6.68 11.75,1.23 c 0.05,33.28 0,66.55 -0.16,99.83 c -1.68,8.1 -11.5,6.1 -11.68,-1.01 c 0.07,-8.51 0.05,-17.01 -0.07,-25.51 Z M 600.2,437.46 c 1.94,1.12 2.99,2.79 3.17,5.03 c 0.14,7.33 0.26,14.66 0.35,21.99 c -0.68,0.68 -0.67,1.37 0.01,2.05 c -0.18,12.32 -0.25,24.65 -0.2,36.98 c 0,2.68 -1.16,4.67 -3.48,5.95 c -4.4,1.15 -7.07,-0.5 -8,-4.95 c 0.03,-20.01 -0.02,-40.01 -0.16,-60.02 c -0.02,-1.17 0.11,-2.33 0.38,-3.47 c 1.58,-3.53 4.22,-4.71 7.93,-3.56 Z M 641.36,504.02 c 0.03,-19.51 0.03,-39.02 -0.01,-58.53 c -0.13,-1.94 0.24,-3.78 1.09,-5.52 c 3.04,-4.5 9.85,-3.17 10.87,2.51 c 0.05,20.01 0.1,40.02 0.17,60.03 c 0.72,8.97 -10.77,10.46 -12.12,1.51 Z M 566.64,471 c 0.01,-6 -1.78,-15.67 7.39,-14.62 c 3.39,1.15 4.98,3.52 4.76,7.12 c 0,7.61 -0.03,15.23 -0.09,22.84 c -1.54,7.19 -12.22,6.69 -12.03,-1.84 c 0.02,-4.5 0.01,-9 -0.03,-13.5 Z M 666.22,467 c -1.64,-13.67 11.85,-13.71 12.06,-4.5 c 0.08,8 0.06,16.01 -0.05,24.01 c -1.28,5.98 -9.43,6.33 -11.69,0.48 c -0.26,-6.65 -0.37,-13.32 -0.32,-19.99 Z M 929.88,838.99 c 5.35,-11.82 10.76,-23.61 16.25,-35.37 c 1.01,-0.92 1.75,-0.71 2.23,0.64 c 5.45,11.74 10.87,23.48 16.27,35.24 c -0.52,0.66 -1.22,0.94 -2.1,0.84 c -10.02,0.01 -20.04,0.02 -30.05,0.02 c -0.94,0.02 -2.71,0.04 -2.6,-1.37 Z"/></g>
<g><path fill="#ffffff" stroke="#ffffff" stroke-width="0.5" d="M 566.31,558.72 c 4.65,3.21 9.56,5.98 14.72,8.29 c -0.86,2.2 -7.09,4.18 -9.29,3.62 c -3.66,-0.94 -6.85,-2.72 -9.56,-5.34 c -0.61,-2.05 0.2,-2.54 1.41,-3.85 c -0.3,-0.73 -0.32,-1.45 -0.09,-2.15 c 1.14,0.74 2.07,0.55 2.81,-0.57 Z M 330.29,799.25 c -0.16,-1.02 -0.75,-1.54 -1.76,-1.56 c -2.01,0.25 -4.02,0.42 -6.04,0.51 c -6,-0.82 -11.95,-0.07 -17.95,0.08 c -6.04,-0.43 -12.08,-0.56 -18.14,-0.4 c -0.48,-0.06 -0.86,0.09 -1.15,0.44 c 0.34,0.4 0.77,0.61 1.29,0.64 c 12.62,-0.23 25.24,-0.29 37.86,-0.18 c 1.97,0.04 3.94,0.19 5.89,0.47 c -2.04,1.2 -36.49,0.29 -41.79,0.58 c -2.37,0.05 -3.47,1.27 -3.3,3.67 c -0.04,6 -0.03,12 0.04,18.01 c 0.24,1.88 1.33,2.83 3.26,2.85 c 9.66,0.07 19.33,0.12 29,0.17 c 4.64,0.12 5.09,6.87 0.96,7.47 c -6.81,0.15 -13.63,0.2 -20.44,0.16 c 0.3,-0.43 0.49,-0.91 0.55,-1.43 c -3.06,-5 -8.56,-5.79 -12.07,-0.75 c -1.1,1.7 3.09,0.28 3.52,2.15 c -3.1,-0.18 -4.33,0.07 -4.84,3.37 c 0.08,6.01 0.08,12.01 -0.01,18.02 c -0.15,2.37 0.96,3.61 3.33,3.69 c 13.32,-0.05 26.64,0.01 39.95,0.18 c 4.87,0.59 4.94,8.63 -1.95,8.03 c -15.33,-0.02 -30.66,-0.04 -46,-0.04 c -2.74,0.14 -4.03,-1.15 -3.88,-3.87 c 0.07,-21.67 0.04,-43.34 -0.09,-65.01 c -0.12,-2.93 0.63,-4.94 3.96,-4.64 c 15.67,-0.03 31.34,-0.01 47,0.04 c 4.42,0.72 3.48,4.17 2.8,7.35 Z M 408.18,792.21 c 3.2,-0.66 8.36,-1.61 10.09,2.1 c 8.43,19.58 16.86,39.16 25.3,58.73 c 0.7,0.86 1.3,0.77 1.8,-0.28 c 8.45,-19.47 16.88,-38.95 25.3,-58.44 c 1.72,-3.51 5.7,-2.69 8.89,-2.49 c 0.59,0 1.02,0.26 1.28,0.78 c -10.19,23.32 -20.47,46.62 -30.84,69.89 c -1.47,4.64 -9.65,4.59 -11.15,0.12 c -10.26,-23.46 -20.48,-46.93 -30.67,-70.41 Z M 561.35,862 c 0.1,-22.43 0.14,-44.85 0.13,-67.28 c 0.34,-4.71 8.83,-4.76 8.57,0.78 c 0.06,22.33 0.05,44.66 -0.04,66.99 c 0.12,1.81 -0.71,2.84 -2.47,3.1 c -2.99,0.4 -6.41,0.38 -6.19,-3.59 Z M 650.95,865.04 c 0.03,-0.72 0.2,-1.4 0.51,-2.05 c 10.85,-22.83 21.57,-45.73 32.16,-68.69 c 2.47,-4.13 9.07,-4 11.28,0.3 c 10.35,22.89 20.93,45.67 31.73,68.36 c 0.77,1.3 0.43,2.11 -1.03,2.41 c -12.81,2.46 -8.94,-13.19 -16.21,-17.18 c -12.63,-0.2 -25.26,-0.26 -37.89,-0.18 c -10.09,-1.62 -4.92,21.55 -20.55,17.03 Z M 818.4,837.98 c 0.52,-0.31 0.71,-0.79 0.58,-1.44 c -0.04,-4.69 -0.04,-9.38 0.01,-14.08 c 0.13,-0.7 -0.11,-1.2 -0.7,-1.5 c 0.27,-5.48 0.34,-10.97 0.19,-16.47 c -0.12,-2.25 -0.05,-4.65 -2.99,-4.58 c -6,-0.07 -12,-0.08 -18,-0.04 c -7.08,0.47 -5.55,-9.2 0,-8.01 c 17.01,0.03 34.01,0.03 51.02,-0.01 c 2.76,-0.32 4.21,0.89 4.35,3.62 c 0.7,7.82 -17.74,3.04 -22.36,4.4 c -3.78,0.01 -3.48,1.42 -3.49,4.63 c 0.08,19.94 0,39.87 -0.25,59.79 c -1.91,1.93 -6.46,2.25 -8.01,-0.31 c -0.29,-8.65 -0.41,-17.32 -0.35,-26 Z M 1083.06,820.95 c -0.9,0.04 -1.77,-0.14 -2.59,-0.53 c -0.93,1.73 -2.59,1.64 -3.64,3.14 c -0.02,0.89 -0.04,1.78 -0.06,2.67 c -4.98,-6.17 -9.96,-12.35 -14.94,-18.52 c -0.53,-0.61 -1.05,-0.62 -1.54,-0.04 c 0,18.59 -0.12,37.19 -0.35,55.77 c -0.13,1.43 -0.93,2.14 -2.4,2.14 c -3.59,0.57 -5.75,-0.12 -5.69,-4.08 c 0.03,-22 0.05,-44 0.06,-66 c 0,-1.18 0.27,-2.28 0.81,-3.3 c 3.01,-1.15 5.79,-0.73 8.33,1.26 c 7.36,9.14 14.7,18.3 22.01,27.49 Z M 671.85,839.05 c 0.17,0.83 0.7,1.24 1.56,1.24 c 10.37,0.09 20.75,0.09 31.12,0.01 c 0.86,0.1 1.54,-0.16 2.05,-0.81 c -5.52,-11.69 -10.9,-23.44 -16.15,-35.26 c -0.51,-1.42 -1.28,-1.64 -2.32,-0.64 c -5.47,11.8 -10.89,23.62 -16.26,35.46 Z"/></g>
<g><path fill="#ffffff" d="M 668.88,382.34 c -33.8,-17.25 -73.82,-13.78 -104.77,7.84 c -0.67,-0.05 -1.27,-0.27 -1.79,-0.66 c 1.08,-2.13 2.24,-1.48 0.04,-3.02 c 0.21,-1.89 2.59,-3.62 3.17,-5.51 c 1.33,-1.63 3.18,-2.08 1.87,-4.39 c 1.09,-0.82 2.19,-1.62 3.32,-2.39 c 2.23,-0.76 3,2 5.87,0.12 c -0.21,1.32 -0.16,2.66 0.17,4.02 c -1.88,1.43 -6.13,-0.66 -5.72,3.96 c 0.9,0.33 1.84,0.4 2.82,0.22 c 1.91,-0.69 3.78,-1.53 5.61,-2.53 c 1.07,-1.01 2.26,-1.88 3.56,-2.6 c 3.56,-0.51 4.87,-0.26 7.57,-3.24 c 3.81,-0.41 7.34,-2.18 11.09,-2.95 c 3.13,0.91 5.64,-1 8.77,-0.89 c 1.8,-1.37 2.77,-0.94 4.85,-1.46 c 0.08,-0.57 0.19,-1.12 0.34,-1.67 c 1.2,-0.98 4.94,-1.84 6,-0.67 c -0.57,0.84 -1.34,1.48 -2.31,1.92 c 2.58,1.8 5.29,2.02 8.16,0.67 c 1.29,0.05 2.58,-0.01 3.85,-0.2 c 1.12,-0.45 1.63,-1.93 2.99,-1.64 c 2.56,1.69 5.28,3.06 8.17,4.11 c 7.45,0.56 15.04,4.28 22.23,6.46 c 0.99,-0.03 1.74,-0.48 2.27,-1.36 c 0.35,-0.21 0.69,-0.2 1.04,0.01 c 5.62,1.94 -0.59,4.25 2.42,5.15 c -0.43,0.39 -0.96,0.62 -1.59,0.7 Z"/></g>
<g><path fill="#ffffff" d="M 763.46,444.8 c 1.02,5.24 1.76,10.53 2.21,15.85 c 0.18,0.75 0,1.37 -0.55,1.86 c -12.21,0.18 -24.42,0.3 -36.64,0.37 c -1.26,0.08 -2.38,-0.26 -3.37,-1.01 c 0.14,-0.72 0.58,-1.14 1.31,-1.26 c 6.36,-0.03 12.71,0.08 19.06,0.33 c 2.43,0.05 4.83,-0.11 7.2,-0.48 c -0.41,-0.36 -0.84,-0.69 -1.31,-0.98 c 1.59,-0.98 3.24,-1.86 4.95,-2.63 c 1.06,-1.9 2.29,-3.69 3.67,-5.37 c 0.5,-0.17 0.99,-0.11 1.46,0.18 c 1.54,-1.33 -0.95,-5.84 2.01,-6.86 Z M 755.5,528.19 c -3.35,7.68 -7.33,15.02 -11.94,22.01 c -0.98,-0.26 -1.68,-0.86 -2.11,-1.8 c -2.5,1.2 -1.3,-4.38 -0.94,-5.45 c 1.94,-2.06 3.45,-0.52 3.96,1.63 c 0.78,-1.15 1.74,-2.1 2.89,-2.84 c 1.04,-4.63 4.22,-9.36 6.04,-13.8 c 1.3,-1.66 1.42,-1.92 2.1,0.25 Z"/></g>
<g><path fill="#ffffff" d="M 764.47,497.2 c -0.81,-0.25 -1.28,-0.8 -1.41,-1.64 c 0.34,-1.35 0.63,-2.71 0.88,-4.07 c -1.47,-4.39 -0.78,-3.79 -5.45,-4.51 c -9.32,0.03 -18.64,0.03 -27.96,0 c -2.82,0.67 -4.86,-0.46 -5.29,3.45 c -0.41,2.81 -0.65,5.65 -0.73,8.51 c -0.3,0.52 -0.6,1.04 -0.88,1.57 c -0.87,2.54 -1.54,5.15 -2,7.85 c -0.61,1.67 -1.53,3.15 -2.76,4.43 c 0.05,1.52 -0.66,2.22 -2.13,2.1 c 3.91,-8.72 6.41,-17.82 7.5,-27.3 c 0.02,-0.5 0.22,-0.91 0.58,-1.25 c 3.21,-0.36 6.43,-0.51 9.68,-0.45 c 10,0.01 20.01,0.02 30.01,0.05 c 0.82,0.13 1.22,0.62 1.19,1.44 c -0.27,3.29 -0.68,6.56 -1.23,9.82 Z"/></g>
<g><path fill="#ffffff" d="M 638.15,332.56 c 5.33,0.56 10.61,1.41 15.84,2.56 c -0.43,0.67 -1.01,1.19 -1.73,1.55 c 2.21,0.27 4.36,0.89 6.43,1.85 c -1.82,0.81 -3.6,0.73 -5.35,-0.26 c -1.25,0.52 -1.09,1.79 -2.84,1.77 c -5.87,-0.03 -8.31,-0.19 -13.79,-2.24 c -0.19,-0.49 -0.32,-0.99 -0.38,-1.51 c -1.4,-0.11 -2.72,-0.48 -3.97,-1.12 c -4.85,-0.21 -9.69,-0.13 -14.53,0.23 c -1.42,-0.52 -4.63,0.11 -5.51,-0.91 c 2.04,-0.28 4.11,-0.43 6.21,-0.45 c 6,0.05 11.99,0.09 17.98,0.12 c 0.86,-0.2 1.4,-0.73 1.64,-1.59 Z"/></g>
<g><path fill="#ffffff" d="M 690.92,231.38 c 10.48,1.7 20.88,3.81 31.2,6.3 c -0.12,0.45 -0.38,0.8 -0.78,1.04 c -2.01,-0.1 -3.96,-0.49 -5.87,-1.16 c -0.81,-0.09 -1.62,-0.1 -2.43,-0.02 c -0.78,-0.36 -1.57,-0.69 -2.37,-1.01 c -3.37,-0.69 -6.75,-1.34 -10.13,-1.96 c -1.29,0.18 -2.58,0.24 -3.87,0.17 c -0.79,-0.27 -1.52,-0.64 -2.22,-1.11 c -2.05,-0.08 -4.02,-0.53 -5.91,-1.36 c 0.71,-0.2 2.2,0.14 2.38,-0.89 Z M 550.99,677.16 c 9.33,2.1 18.71,3.91 28.15,5.41 c -0.55,2.12 -3.32,0.78 -4.67,0.6 c -2.96,1.14 -3.19,-0.55 -5.97,-1.05 c -2.56,0.67 -3.18,1.65 -4.79,-0.89 c -1.01,0.3 -2.04,0.5 -3.08,0.6 c -1.44,-0.73 -2.97,-1.17 -4.59,-1.32 c -1.45,-1.29 -2.23,-1.11 -4.04,-1.01 c -1.01,-1.13 -2.22,-1.48 -3.62,-1.05 c 1,-0.23 1.87,-0.66 2.61,-1.29 Z"/></g>
<g><path fill="#ffffff" d="M 550.74,443.91 c 2.07,0.27 0.58,3.55 -0.26,4.37 c -0.4,4.73 -2.52,8.52 -2.53,13.31 c -0.67,2.29 -1.31,4.6 -1.9,6.92 c 0.06,0.72 0.21,1.43 0.43,2.12 c -0.21,-1.12 -0.75,-2 -1.64,-2.65 c 0.55,-8.37 2.51,-16.39 5.9,-24.07 Z M 597.98,713.11 c -11.45,-0.68 -22.85,-1.88 -34.19,-3.6 c 0.23,-2.61 4.15,-1.36 5.84,-1.56 c 9.49,2.12 19.38,1.94 28.88,3.95 c 0.71,-0.14 1.42,-0.26 2.12,-0.35 c -0.74,0.79 -2.44,0.37 -2.65,1.56 Z"/></g>
<g><path fill="#ffffff" d="M 522.89,495.98 c -0.52,0.43 -0.94,0.94 -1.26,1.53 c -1.4,-2.79 -2.02,-5.74 -1.87,-8.87 c -0.77,-1.14 -1.86,-1.7 -3.26,-1.68 c -6.66,0.05 -13.33,0.05 -20,-0.01 c -1.32,0.25 -2.64,0.5 -3.96,0.74 c -3.07,0.09 -6.13,-0.01 -9.17,-0.28 c -4.49,0.93 0.5,6.56 -2.88,7.8 c -0.42,-2.58 -0.71,-5.18 -0.86,-7.8 c 0.01,-0.65 0.31,-1.11 0.9,-1.39 c 13.3,-0.19 26.6,-0.19 39.9,0 c 0.53,0.23 0.85,0.63 0.96,1.19 c 0.42,2.93 0.92,5.86 1.5,8.77 Z"/></g>
<g><path fill="#ffffff" d="M 302.97,495.1 c 0.08,0.59 -0.03,1.12 -0.35,1.6 c -0.93,-0.66 -1.96,-1 -3.1,-1.03 c -7,-0.02 -14.01,-0.03 -21.02,-0.01 c -3.62,-0.69 -7.29,-0.93 -11,-0.71 c -2.61,0.66 -5.27,1 -7.98,1.02 c -1.34,-0.31 -2.69,-0.62 -4.03,-0.92 c -2.03,0.96 -3.8,0.44 -5.78,2.1 c -0.53,-0.83 -0.97,-1.7 -1.35,-2.6 c 0.61,-0.49 1.31,-0.68 2.12,-0.58 c 16.35,-0.05 32.7,-0.1 49.05,-0.16 c 1.29,0.04 2.44,0.47 3.44,1.29 Z"/></g>
<g><path fill="#ffffff" d="M 521.32,461.02 c -0.07,1.17 -0.69,1.78 -1.85,1.85 c -11.66,-0.13 -23.32,-0.09 -34.98,0.1 c -1.51,-0.02 -2.99,-0.22 -4.44,-0.59 c -0.26,-0.5 -0.36,-1.05 -0.32,-1.62 c 0.89,0.33 1.8,0.51 2.75,0.53 c 10,0.08 20.01,0.05 30.02,-0.08 c 1.97,-0.03 3.94,-0.16 5.9,-0.41 c 0.51,-0.35 0.88,-0.82 1.13,-1.4 c 0.46,0.69 1.05,1.23 1.79,1.62 Z"/></g>
<g><path fill="#ffffff" d="M 493.65,410.83 c 0.45,0.12 0.77,0.39 0.97,0.81 c -0.87,1.16 -1.58,2.42 -2.14,3.79 c -0.09,1.07 -0.18,2.14 -0.28,3.2 c -0.44,0.96 -0.99,1.85 -1.64,2.67 c 0.01,1.68 -0.62,3.07 -1.91,4.16 c -0.17,1.37 -0.65,2.62 -1.44,3.74 c 0.26,1.46 0.21,2.9 -0.17,4.34 c -0.69,2.43 -1.59,4.77 -2.69,7.02 c -0.32,-0.61 -0.74,-1.14 -1.26,-1.58 c 2.18,-9.62 6.17,-19.35 10.56,-28.15 Z"/></g>
<g><path fill="#ffffff" stroke="#ffffff" stroke-width="0.5" d="M 298.02,832.16 c -2.67,-0.01 -5.34,-0.02 -8,-0.03 c -0.43,-1.87 -4.62,-0.45 -3.52,-2.15 c 3.51,-5.04 9.01,-4.25 12.07,0.75 c -0.06,0.52 -0.25,1 -0.55,1.43 Z"/></g>
<g><path fill="#ffffff" d="M 330.29,799.25 c -1.95,-0.28 -3.92,-0.43 -5.89,-0.47 c -12.62,-0.11 -25.24,-0.05 -37.86,0.18 c -0.52,-0.03 -0.95,-0.24 -1.29,-0.64 c 0.29,-0.35 0.67,-0.5 1.15,-0.44 c 6.06,-0.16 12.1,-0.03 18.14,0.4 c 6,-0.15 11.95,-0.9 17.95,-0.08 c 2.02,-0.09 4.03,-0.26 6.04,-0.51 c 1.01,0.02 1.6,0.54 1.76,1.56 Z"/></g>
<g><path fill="#ffffff" d="M 151.84,798.91 c 0.5,-0.63 1.09,-0.7 1.79,-0.21 c 0.17,-1.22 0.47,-2.41 0.9,-3.57 c 0.33,0.36 0.46,0.8 0.39,1.32 c -0.15,5.35 -0.1,10.7 0.13,16.05 c -0.41,13.33 -0.41,26.66 0.01,39.98 c 0.11,1.45 -0.05,2.84 -0.5,4.18 c -0.93,-2.23 -0.35,-8.42 -0.65,-11.16 c 0.11,-14.01 0.11,-28.02 0.02,-42.02 c -0.02,-2.33 -2.67,-0.78 -2.09,-4.57 Z"/></g>
<g><path fill="#ffffff" d="M 600.2,437.46 c -3.71,-1.15 -6.35,0.03 -7.93,3.56 c -1.11,0.42 -1.58,1.24 -1.39,2.47 c 0,20.29 0.22,40.71 -0.02,61 c -0.29,1.57 -0.61,1.6 -0.97,0.08 c -0.21,-3.03 0.58,-3.86 -1.85,-6.15 c -0.38,-3.1 -2.89,-6.74 1.16,-8.58 c 1.54,-2.41 0.75,-11.26 0.61,-14.3 c -1.09,-1.59 -2.05,-3.28 -2.89,-5.07 c -0.31,-2.22 -1.18,-6.75 1.98,-7.28 c 1.7,-3.64 1.21,-11.56 1.11,-15.73 c 0.33,-2.12 -2.14,-1.16 -3.35,-1.63 c -1.49,-1.36 -0.21,-3.69 0.48,-5.18 c 1.33,-2 2.66,-3.98 4,-5.96 c 1.16,-1.15 2.54,-1.66 4.16,-1.53 c 1.55,1.26 3.26,2.22 5.13,2.89 c 0.33,0.5 0.25,0.97 -0.23,1.41 Z"/></g>
<g><path fill="#ffffff" d="M 614.67,426.98 c -0.07,-1.61 0.23,-3.15 0.88,-4.61 c 0.41,1.68 0.59,3.4 0.54,5.16 c -0.1,21.65 -0.12,43.3 -0.06,64.95 c -0.36,6.66 -0.33,13.33 0.1,20 c -0.18,4.33 -0.31,8.66 -0.39,12.99 c -0.99,-1.28 -0.76,-8.92 -1.03,-10.98 c 0.11,-5 0.33,-9.99 0.64,-14.98 c -0.07,-3.01 -0.25,-6.01 -0.54,-9 c 0.14,-15.02 0.28,-30.04 0.44,-45.05 c -0.37,-6.15 -0.56,-12.31 -0.58,-18.48 Z M 610.98,575.96 c 0.66,1.08 0.94,2.25 0.84,3.52 c -0.16,11 -0.21,22 -0.17,32.99 c 0.03,1.93 -0.89,2.55 -2.77,1.85 c 0.26,-0.69 0.56,-1.37 0.9,-2.04 c -0.52,-1.53 -0.76,-3.11 -0.72,-4.75 c 1.41,-6.75 1.54,-13.19 0.65,-20.05 c 0.04,-3.26 0.03,-6.51 -0.06,-9.76 c -0.36,-0.49 -0.8,-0.91 -1.32,-1.24 c 0.75,-0.71 1.63,-0.88 2.65,-0.52 Z"/></g>
</svg>
